<svg width="14.400002" height="12.799988" viewBox="0 0 14.4 12.8" fill="none" xmlns="http://www.w3.org/2000/svg" xmlns:xlink="http://www.w3.org/1999/xlink">
	<desc>
			Created with Pixso.
	</desc>
	<defs/>
	<path d="M14.05 2.62C13.82 2.1 13.5 1.64 13.1 1.25C12.7 0.86 12.22 0.54 11.7 0.33C11.16 0.11 10.58 -0.01 9.99 0C9.17 0 8.37 0.22 7.67 0.64C7.5 0.74 7.35 0.85 7.2 0.97C7.05 0.85 6.89 0.74 6.72 0.64C6.02 0.22 5.22 0 4.4 0C3.81 0 3.24 0.11 2.69 0.33C2.17 0.55 1.7 0.86 1.29 1.25C0.89 1.64 0.57 2.1 0.35 2.62C0.11 3.15 0 3.72 0 4.3C0 4.85 0.11 5.43 0.33 6.01C0.52 6.5 0.79 7.01 1.14 7.52C1.68 8.33 2.44 9.17 3.37 10.02C4.92 11.44 6.45 12.42 6.51 12.46L6.91 12.71C7.08 12.82 7.31 12.82 7.48 12.71L7.88 12.46C7.94 12.42 9.47 11.44 11.02 10.02C11.95 9.17 12.71 8.33 13.25 7.52C13.6 7.01 13.87 6.5 14.06 6.01C14.28 5.43 14.4 4.85 14.4 4.3C14.4 3.72 14.28 3.15 14.05 2.62Z" fill="#FF8585" fill-opacity="1.000000" fill-rule="nonzero"/>
</svg>
