<svg width="15.135406" height="13.354523" viewBox="0 0 15.1354 13.3545" fill="none" xmlns="http://www.w3.org/2000/svg" xmlns:xlink="http://www.w3.org/1999/xlink">
	<desc>
			Created with Pixso.
	</desc>
	<defs/>
	<path id="Vector" d="M12.27 0.87C11.82 0.69 11.34 0.6 10.86 0.6C10.38 0.6 9.9 0.69 9.46 0.87C9.01 1.06 8.61 1.33 8.27 1.67L7.56 2.38L6.86 1.67C6.17 0.98 5.24 0.6 4.26 0.6C3.29 0.6 2.36 0.98 1.67 1.67C0.98 2.36 0.6 3.29 0.6 4.26C0.6 5.24 0.98 6.17 1.67 6.86L2.38 7.56L7.56 12.75L12.75 7.56L13.46 6.86C13.8 6.52 14.07 6.11 14.25 5.67C14.44 5.22 14.53 4.74 14.53 4.26C14.53 3.78 14.44 3.3 14.25 2.86C14.07 2.41 13.8 2.01 13.46 1.67C13.12 1.33 12.71 1.06 12.27 0.87Z" stroke="#EAEAEA" stroke-opacity="1.000000" stroke-width="1.200000" stroke-linejoin="round"/>
</svg>
